<svg xmlns="http://www.w3.org/2000/svg" xmlns:xlink="http://www.w3.org/1999/xlink" width="500" zoomAndPan="magnify" viewBox="0 0 375 374.999991" height="500" preserveAspectRatio="xMidYMid meet" version="1.0"><defs><g/><clipPath id="23e2abf054"><path d="M 170 87.316406 L 204 87.316406 L 204 202 L 170 202 Z M 170 87.316406 " clip-rule="nonzero"/></clipPath></defs><rect x="-37.5" width="450" fill="#ffffff" y="-37.499999" height="449.999989" fill-opacity="1"/><rect x="-37.5" width="450" fill="#ffffff" y="-37.499999" height="449.999989" fill-opacity="1"/><rect x="-37.5" width="450" fill="#ffffff" y="-37.499999" height="449.999989" fill-opacity="1"/><g fill="#001369" fill-opacity="1"><g transform="translate(57.600685, 262.804274)"><g><path d="M 14.242188 0 C 15.347656 0 19.183594 0 21.914062 -2.066406 C 23.5 -3.285156 24.71875 -5.570312 24.71875 -8.335938 C 24.71875 -11.769531 22.875 -14.054688 19.515625 -14.792969 C 21.949219 -15.789062 23.277344 -18.003906 23.277344 -21.101562 C 23.277344 -23.09375 22.726562 -24.570312 21.617188 -25.714844 C 20.070312 -27.335938 17.414062 -28.148438 13.722656 -28.148438 L 2.214844 -28.148438 L 2.214844 0 Z M 8.816406 -22.246094 L 12.285156 -22.246094 C 14.203125 -22.246094 15.164062 -22.0625 15.789062 -21.582031 C 16.378906 -21.140625 16.675781 -20.476562 16.675781 -19.554688 C 16.675781 -17.707031 15.496094 -16.785156 13.171875 -16.785156 L 8.816406 -16.785156 Z M 8.816406 -11.621094 L 13.871094 -11.621094 C 16.566406 -11.621094 18.113281 -11.214844 18.113281 -8.890625 C 18.113281 -7.859375 17.820312 -7.195312 17.265625 -6.75 C 16.417969 -6.050781 15.050781 -5.902344 13.390625 -5.902344 L 8.816406 -5.902344 Z M 8.816406 -11.621094 "/></g></g></g><g fill="#001369" fill-opacity="1"><g transform="translate(94.603305, 262.804274)"><g><path d="M 13.910156 0.628906 C 22.578125 0.628906 25.863281 -4.058594 25.863281 -10.515625 L 25.863281 -28.148438 L 19.222656 -28.148438 L 19.222656 -10.515625 C 19.222656 -7.636719 18.1875 -5.277344 13.910156 -5.277344 C 9.59375 -5.277344 8.558594 -7.636719 8.558594 -10.515625 L 8.558594 -28.148438 L 1.917969 -28.148438 L 1.917969 -10.515625 C 1.917969 -4.058594 5.203125 0.628906 13.910156 0.628906 Z M 13.910156 0.628906 "/></g></g></g><g fill="#001369" fill-opacity="1"><g transform="translate(133.487345, 262.804274)"><g><path d="M 8.816406 0 L 8.816406 -28.148438 L 2.214844 -28.148438 L 2.214844 0 Z M 8.816406 0 "/></g></g></g><g fill="#001369" fill-opacity="1"><g transform="translate(155.623078, 262.804274)"><g><path d="M 20.289062 0 L 20.289062 -5.902344 L 8.816406 -5.902344 L 8.816406 -28.148438 L 2.214844 -28.148438 L 2.214844 0 Z M 20.289062 0 "/></g></g></g><g fill="#001369" fill-opacity="1"><g transform="translate(187.276564, 262.804274)"><g><path d="M 10.734375 0 C 20.328125 0 25.601562 -5.015625 25.601562 -14.128906 C 25.601562 -23.167969 20.328125 -28.148438 10.734375 -28.148438 L 2.214844 -28.148438 L 2.214844 0 Z M 8.816406 -22.246094 L 10.660156 -22.246094 C 15.789062 -22.246094 19 -19.480469 19 -14.128906 C 19 -8.410156 16.085938 -5.902344 10.660156 -5.902344 L 8.816406 -5.902344 Z M 8.816406 -22.246094 "/></g></g></g><g fill="#001369" fill-opacity="1"><g transform="translate(225.127667, 262.804274)"><g><path d="M 8.816406 0 L 8.816406 -28.148438 L 2.214844 -28.148438 L 2.214844 0 Z M 8.816406 0 "/></g></g></g><g fill="#001369" fill-opacity="1"><g transform="translate(247.2634, 262.804274)"><g><path d="M 8.816406 0 L 8.816406 -17.191406 L 19.625 0 L 26.339844 0 L 26.339844 -28.148438 L 19.738281 -28.148438 L 19.738281 -11.066406 L 8.929688 -28.148438 L 2.214844 -28.148438 L 2.214844 0 Z M 8.816406 0 "/></g></g></g><g fill="#001369" fill-opacity="1"><g transform="translate(286.885246, 262.804274)"><g><path d="M 15.199219 0.628906 C 17.78125 0.628906 20.734375 0.0742188 22.6875 -2.621094 L 22.6875 0 L 28.703125 0 L 28.703125 -15.714844 L 16.234375 -15.714844 L 16.234375 -10.402344 L 22.097656 -10.402344 C 21.914062 -6.789062 19.664062 -5.277344 15.9375 -5.277344 C 10.773438 -5.277344 8.117188 -8.742188 8.117188 -14.09375 C 8.117188 -19.40625 10.773438 -22.835938 15.199219 -22.835938 C 18.667969 -22.835938 20.695312 -21.433594 21.359375 -18.628906 L 28.589844 -18.628906 C 27.667969 -24.71875 23.167969 -28.738281 15.199219 -28.738281 C 5.570312 -28.738281 1.144531 -21.949219 1.144531 -14.09375 C 1.144531 -6.234375 5.570312 0.628906 15.199219 0.628906 Z M 15.199219 0.628906 "/></g></g></g><g fill="#001369" fill-opacity="1"><g transform="translate(118.339426, 285.134234)"><g><path d="M 3.359375 0.0625 C 2.796875 0.0625 2.285156 -0.0625 1.828125 -0.3125 C 1.378906 -0.5625 1.023438 -0.90625 0.765625 -1.34375 C 0.515625 -1.78125 0.390625 -2.269531 0.390625 -2.8125 C 0.390625 -3.363281 0.515625 -3.859375 0.765625 -4.296875 C 1.023438 -4.734375 1.382812 -5.078125 1.84375 -5.328125 C 2.300781 -5.578125 2.8125 -5.703125 3.375 -5.703125 C 3.8125 -5.703125 4.210938 -5.625 4.578125 -5.46875 C 4.941406 -5.320312 5.253906 -5.101562 5.515625 -4.8125 L 4.984375 -4.3125 C 4.566406 -4.757812 4.039062 -4.984375 3.40625 -4.984375 C 2.988281 -4.984375 2.609375 -4.890625 2.265625 -4.703125 C 1.929688 -4.515625 1.664062 -4.253906 1.46875 -3.921875 C 1.28125 -3.585938 1.1875 -3.21875 1.1875 -2.8125 C 1.1875 -2.40625 1.28125 -2.035156 1.46875 -1.703125 C 1.664062 -1.378906 1.929688 -1.125 2.265625 -0.9375 C 2.609375 -0.75 2.988281 -0.65625 3.40625 -0.65625 C 4.03125 -0.65625 4.554688 -0.878906 4.984375 -1.328125 L 5.515625 -0.828125 C 5.253906 -0.535156 4.9375 -0.3125 4.5625 -0.15625 C 4.195312 -0.0078125 3.796875 0.0625 3.359375 0.0625 Z M 3.359375 0.0625 "/></g></g></g><g fill="#001369" fill-opacity="1"><g transform="translate(130.605692, 285.134234)"><g><path d="M 3.390625 0.0625 C 2.816406 0.0625 2.300781 -0.0625 1.84375 -0.3125 C 1.394531 -0.5625 1.039062 -0.90625 0.78125 -1.34375 C 0.519531 -1.78125 0.390625 -2.269531 0.390625 -2.8125 C 0.390625 -3.351562 0.519531 -3.84375 0.78125 -4.28125 C 1.039062 -4.726562 1.394531 -5.078125 1.84375 -5.328125 C 2.300781 -5.578125 2.816406 -5.703125 3.390625 -5.703125 C 3.953125 -5.703125 4.457031 -5.578125 4.90625 -5.328125 C 5.363281 -5.078125 5.722656 -4.734375 5.984375 -4.296875 C 6.242188 -3.859375 6.375 -3.363281 6.375 -2.8125 C 6.375 -2.269531 6.242188 -1.78125 5.984375 -1.34375 C 5.722656 -0.90625 5.363281 -0.5625 4.90625 -0.3125 C 4.457031 -0.0625 3.953125 0.0625 3.390625 0.0625 Z M 3.390625 -0.65625 C 3.796875 -0.65625 4.164062 -0.75 4.5 -0.9375 C 4.832031 -1.125 5.09375 -1.378906 5.28125 -1.703125 C 5.46875 -2.035156 5.5625 -2.40625 5.5625 -2.8125 C 5.5625 -3.21875 5.46875 -3.585938 5.28125 -3.921875 C 5.09375 -4.253906 4.832031 -4.515625 4.5 -4.703125 C 4.164062 -4.890625 3.796875 -4.984375 3.390625 -4.984375 C 2.972656 -4.984375 2.597656 -4.890625 2.265625 -4.703125 C 1.929688 -4.515625 1.664062 -4.253906 1.46875 -3.921875 C 1.28125 -3.585938 1.1875 -3.21875 1.1875 -2.8125 C 1.1875 -2.40625 1.28125 -2.035156 1.46875 -1.703125 C 1.664062 -1.378906 1.929688 -1.125 2.265625 -0.9375 C 2.597656 -0.75 2.972656 -0.65625 3.390625 -0.65625 Z M 3.390625 -0.65625 "/></g></g></g><g fill="#001369" fill-opacity="1"><g transform="translate(143.814291, 285.134234)"><g><path d="M 5.6875 -5.625 L 5.6875 0 L 5.03125 0 L 1.65625 -4.203125 L 1.65625 0 L 0.84375 0 L 0.84375 -5.625 L 1.5 -5.625 L 4.890625 -1.4375 L 4.890625 -5.625 Z M 5.6875 -5.625 "/></g></g></g><g fill="#001369" fill-opacity="1"><g transform="translate(156.79737, 285.134234)"><g><path d="M 2.484375 0.0625 C 2.054688 0.0625 1.644531 0 1.25 -0.125 C 0.863281 -0.257812 0.554688 -0.429688 0.328125 -0.640625 L 0.625 -1.265625 C 0.84375 -1.078125 1.117188 -0.921875 1.453125 -0.796875 C 1.785156 -0.679688 2.128906 -0.625 2.484375 -0.625 C 2.953125 -0.625 3.300781 -0.703125 3.53125 -0.859375 C 3.757812 -1.015625 3.875 -1.222656 3.875 -1.484375 C 3.875 -1.679688 3.8125 -1.835938 3.6875 -1.953125 C 3.5625 -2.078125 3.40625 -2.171875 3.21875 -2.234375 C 3.03125 -2.296875 2.769531 -2.367188 2.4375 -2.453125 C 2.007812 -2.554688 1.664062 -2.65625 1.40625 -2.75 C 1.144531 -2.851562 0.921875 -3.007812 0.734375 -3.21875 C 0.554688 -3.4375 0.46875 -3.726562 0.46875 -4.09375 C 0.46875 -4.382812 0.546875 -4.648438 0.703125 -4.890625 C 0.859375 -5.140625 1.097656 -5.335938 1.421875 -5.484375 C 1.742188 -5.628906 2.144531 -5.703125 2.625 -5.703125 C 2.957031 -5.703125 3.285156 -5.65625 3.609375 -5.5625 C 3.929688 -5.476562 4.207031 -5.359375 4.4375 -5.203125 L 4.171875 -4.546875 C 3.929688 -4.703125 3.675781 -4.816406 3.40625 -4.890625 C 3.144531 -4.972656 2.882812 -5.015625 2.625 -5.015625 C 2.164062 -5.015625 1.820312 -4.929688 1.59375 -4.765625 C 1.363281 -4.597656 1.25 -4.382812 1.25 -4.125 C 1.25 -3.925781 1.3125 -3.765625 1.4375 -3.640625 C 1.570312 -3.523438 1.734375 -3.429688 1.921875 -3.359375 C 2.117188 -3.296875 2.378906 -3.226562 2.703125 -3.15625 C 3.128906 -3.050781 3.46875 -2.945312 3.71875 -2.84375 C 3.976562 -2.75 4.203125 -2.59375 4.390625 -2.375 C 4.578125 -2.164062 4.671875 -1.882812 4.671875 -1.53125 C 4.671875 -1.238281 4.585938 -0.96875 4.421875 -0.71875 C 4.265625 -0.476562 4.019531 -0.285156 3.6875 -0.140625 C 3.363281 -0.00390625 2.960938 0.0625 2.484375 0.0625 Z M 2.484375 0.0625 "/></g></g></g><g fill="#001369" fill-opacity="1"><g transform="translate(168.242129, 285.134234)"><g><path d="M 1.96875 -4.9375 L 0.03125 -4.9375 L 0.03125 -5.625 L 4.6875 -5.625 L 4.6875 -4.9375 L 2.765625 -4.9375 L 2.765625 0 L 1.96875 0 Z M 1.96875 -4.9375 "/></g></g></g><g fill="#001369" fill-opacity="1"><g transform="translate(179.413049, 285.134234)"><g><path d="M 4.609375 0 L 3.390625 -1.734375 C 3.242188 -1.722656 3.128906 -1.71875 3.046875 -1.71875 L 1.65625 -1.71875 L 1.65625 0 L 0.84375 0 L 0.84375 -5.625 L 3.046875 -5.625 C 3.773438 -5.625 4.347656 -5.453125 4.765625 -5.109375 C 5.179688 -4.765625 5.390625 -4.285156 5.390625 -3.671875 C 5.390625 -3.234375 5.28125 -2.859375 5.0625 -2.546875 C 4.851562 -2.242188 4.550781 -2.023438 4.15625 -1.890625 L 5.484375 0 Z M 3.015625 -2.390625 C 3.523438 -2.390625 3.914062 -2.5 4.1875 -2.71875 C 4.457031 -2.945312 4.59375 -3.265625 4.59375 -3.671875 C 4.59375 -4.078125 4.457031 -4.390625 4.1875 -4.609375 C 3.914062 -4.828125 3.523438 -4.9375 3.015625 -4.9375 L 1.65625 -4.9375 L 1.65625 -2.390625 Z M 3.015625 -2.390625 "/></g></g></g><g fill="#001369" fill-opacity="1"><g transform="translate(191.711534, 285.134234)"><g><path d="M 3.171875 0.0625 C 2.421875 0.0625 1.835938 -0.148438 1.421875 -0.578125 C 1.003906 -1.003906 0.796875 -1.625 0.796875 -2.4375 L 0.796875 -5.625 L 1.59375 -5.625 L 1.59375 -2.46875 C 1.59375 -1.257812 2.125 -0.65625 3.1875 -0.65625 C 3.695312 -0.65625 4.085938 -0.800781 4.359375 -1.09375 C 4.640625 -1.394531 4.78125 -1.851562 4.78125 -2.46875 L 4.78125 -5.625 L 5.5625 -5.625 L 5.5625 -2.4375 C 5.5625 -1.625 5.351562 -1.003906 4.9375 -0.578125 C 4.519531 -0.148438 3.929688 0.0625 3.171875 0.0625 Z M 3.171875 0.0625 "/></g></g></g><g fill="#001369" fill-opacity="1"><g transform="translate(204.525477, 285.134234)"><g><path d="M 3.359375 0.0625 C 2.796875 0.0625 2.285156 -0.0625 1.828125 -0.3125 C 1.378906 -0.5625 1.023438 -0.90625 0.765625 -1.34375 C 0.515625 -1.78125 0.390625 -2.269531 0.390625 -2.8125 C 0.390625 -3.363281 0.515625 -3.859375 0.765625 -4.296875 C 1.023438 -4.734375 1.382812 -5.078125 1.84375 -5.328125 C 2.300781 -5.578125 2.8125 -5.703125 3.375 -5.703125 C 3.8125 -5.703125 4.210938 -5.625 4.578125 -5.46875 C 4.941406 -5.320312 5.253906 -5.101562 5.515625 -4.8125 L 4.984375 -4.3125 C 4.566406 -4.757812 4.039062 -4.984375 3.40625 -4.984375 C 2.988281 -4.984375 2.609375 -4.890625 2.265625 -4.703125 C 1.929688 -4.515625 1.664062 -4.253906 1.46875 -3.921875 C 1.28125 -3.585938 1.1875 -3.21875 1.1875 -2.8125 C 1.1875 -2.40625 1.28125 -2.035156 1.46875 -1.703125 C 1.664062 -1.378906 1.929688 -1.125 2.265625 -0.9375 C 2.609375 -0.75 2.988281 -0.65625 3.40625 -0.65625 C 4.03125 -0.65625 4.554688 -0.878906 4.984375 -1.328125 L 5.515625 -0.828125 C 5.253906 -0.535156 4.9375 -0.3125 4.5625 -0.15625 C 4.195312 -0.0078125 3.796875 0.0625 3.359375 0.0625 Z M 3.359375 0.0625 "/></g></g></g><g fill="#001369" fill-opacity="1"><g transform="translate(216.791748, 285.134234)"><g><path d="M 1.96875 -4.9375 L 0.03125 -4.9375 L 0.03125 -5.625 L 4.6875 -5.625 L 4.6875 -4.9375 L 2.765625 -4.9375 L 2.765625 0 L 1.96875 0 Z M 1.96875 -4.9375 "/></g></g></g><g fill="#001369" fill-opacity="1"><g transform="translate(227.962673, 285.134234)"><g><path d="M 0.84375 -5.625 L 1.65625 -5.625 L 1.65625 0 L 0.84375 0 Z M 0.84375 -5.625 "/></g></g></g><g fill="#001369" fill-opacity="1"><g transform="translate(236.902629, 285.134234)"><g><path d="M 3.390625 0.0625 C 2.816406 0.0625 2.300781 -0.0625 1.84375 -0.3125 C 1.394531 -0.5625 1.039062 -0.90625 0.78125 -1.34375 C 0.519531 -1.78125 0.390625 -2.269531 0.390625 -2.8125 C 0.390625 -3.351562 0.519531 -3.84375 0.78125 -4.28125 C 1.039062 -4.726562 1.394531 -5.078125 1.84375 -5.328125 C 2.300781 -5.578125 2.816406 -5.703125 3.390625 -5.703125 C 3.953125 -5.703125 4.457031 -5.578125 4.90625 -5.328125 C 5.363281 -5.078125 5.722656 -4.734375 5.984375 -4.296875 C 6.242188 -3.859375 6.375 -3.363281 6.375 -2.8125 C 6.375 -2.269531 6.242188 -1.78125 5.984375 -1.34375 C 5.722656 -0.90625 5.363281 -0.5625 4.90625 -0.3125 C 4.457031 -0.0625 3.953125 0.0625 3.390625 0.0625 Z M 3.390625 -0.65625 C 3.796875 -0.65625 4.164062 -0.75 4.5 -0.9375 C 4.832031 -1.125 5.09375 -1.378906 5.28125 -1.703125 C 5.46875 -2.035156 5.5625 -2.40625 5.5625 -2.8125 C 5.5625 -3.21875 5.46875 -3.585938 5.28125 -3.921875 C 5.09375 -4.253906 4.832031 -4.515625 4.5 -4.703125 C 4.164062 -4.890625 3.796875 -4.984375 3.390625 -4.984375 C 2.972656 -4.984375 2.597656 -4.890625 2.265625 -4.703125 C 1.929688 -4.515625 1.664062 -4.253906 1.46875 -3.921875 C 1.28125 -3.585938 1.1875 -3.21875 1.1875 -2.8125 C 1.1875 -2.40625 1.28125 -2.035156 1.46875 -1.703125 C 1.664062 -1.378906 1.929688 -1.125 2.265625 -0.9375 C 2.597656 -0.75 2.972656 -0.65625 3.390625 -0.65625 Z M 3.390625 -0.65625 "/></g></g></g><g fill="#001369" fill-opacity="1"><g transform="translate(250.111232, 285.134234)"><g><path d="M 5.6875 -5.625 L 5.6875 0 L 5.03125 0 L 1.65625 -4.203125 L 1.65625 0 L 0.84375 0 L 0.84375 -5.625 L 1.5 -5.625 L 4.890625 -1.4375 L 4.890625 -5.625 Z M 5.6875 -5.625 "/></g></g></g><path fill="#001369" d="M 148.148438 129.207031 L 170.195312 117.957031 L 170.195312 194.214844 L 148.148438 190.9375 Z M 148.148438 129.207031 " fill-opacity="1" fill-rule="evenodd"/><path fill="#001369" d="M 207.984375 118.84375 L 207.984375 131.242188 L 209.320312 131.953125 C 214.65625 134.609375 220.257812 137.53125 225.144531 140.898438 C 228.613281 143.375 231.636719 146.210938 233.59375 149.933594 L 233.683594 150.199219 C 233.328125 133.902344 230.214844 130.09375 207.984375 118.84375 Z M 207.984375 191.113281 L 207.984375 207.5 L 229.148438 207.5 C 228.96875 207.054688 228.703125 206.527344 228.523438 206.082031 C 226.921875 203.160156 224.433594 200.945312 221.769531 198.996094 C 217.589844 196.074219 212.699219 193.507812 207.984375 191.113281 Z M 207.984375 191.113281 " fill-opacity="1" fill-rule="evenodd"/><path fill="#001369" d="M 207.984375 191.113281 L 207.984375 207.5 L 229.148438 207.5 L 229.148438 207.410156 L 229.058594 207.320312 L 229.058594 207.140625 L 228.964844 207.140625 L 228.964844 206.960938 L 228.875 206.960938 L 228.875 206.78125 L 228.785156 206.78125 L 228.785156 206.511719 L 228.695312 206.511719 L 228.695312 206.335938 L 228.605469 206.335938 L 228.605469 206.15625 L 228.515625 206.15625 L 228.515625 206.066406 C 226.914062 203.144531 224.425781 200.929688 221.761719 198.980469 L 221.582031 198.890625 L 221.40625 198.714844 L 221.316406 198.714844 L 221.136719 198.535156 L 220.957031 198.445312 L 220.867188 198.445312 L 220.597656 198.175781 L 220.421875 198.085938 L 220.332031 198.085938 L 220.152344 197.90625 L 219.972656 197.816406 L 219.796875 197.640625 L 219.53125 197.550781 L 219.351562 197.375 L 219.175781 197.285156 L 218.730469 197.019531 L 218.640625 196.929688 L 218.460938 196.839844 L 218.285156 196.75 L 218.105469 196.570312 L 217.929688 196.480469 L 217.839844 196.480469 L 217.75 196.390625 L 217.65625 196.300781 L 217.480469 196.210938 L 217.214844 196.035156 L 216.769531 195.769531 L 216.589844 195.679688 L 216.324219 195.589844 L 216.324219 195.5 L 216.148438 195.410156 L 216.054688 195.410156 L 215.964844 195.320312 L 215.789062 195.230469 L 215.699219 195.140625 L 215.609375 195.140625 L 215.519531 195.050781 L 215.34375 194.960938 L 215.253906 194.960938 L 214.808594 194.695312 L 214.628906 194.605469 L 214.628906 194.515625 L 214.363281 194.429688 L 214.183594 194.339844 L 213.917969 194.160156 L 213.742188 194.070312 L 213.652344 194.070312 L 213.472656 193.980469 L 212.851562 193.628906 L 212.671875 193.539062 L 212.582031 193.449219 L 212.230469 193.273438 L 212.140625 193.273438 L 211.960938 193.097656 L 211.339844 192.742188 L 211.25 192.742188 L 211.070312 192.652344 L 210.980469 192.652344 L 210.890625 192.5625 L 210.714844 192.472656 L 210.625 192.382812 L 210.535156 192.382812 L 210.445312 192.292969 L 210.265625 192.207031 L 210.175781 192.207031 L 210 192.117188 L 209.824219 191.9375 L 209.734375 191.9375 L 209.554688 191.847656 L 209.289062 191.761719 L 209.109375 191.582031 L 209.019531 191.582031 L 208.84375 191.492188 L 208.664062 191.402344 L 208.574219 191.402344 L 208.398438 191.3125 L 208.308594 191.226562 L 208.21875 191.136719 L 208.128906 191.136719 Z M 207.984375 191.113281 " fill-opacity="1" fill-rule="evenodd"/><path fill="#001369" d="M 207.984375 134.429688 L 207.984375 148.335938 L 209.320312 149.046875 C 214.65625 151.703125 220.257812 154.625 225.144531 157.992188 C 228.613281 160.46875 231.636719 163.304688 233.59375 167.027344 L 233.773438 167.292969 C 233.503906 149.753906 230.835938 146.125 207.984375 134.429688 Z M 207.984375 134.429688 " fill-opacity="1" fill-rule="evenodd"/><path fill="#001369" d="M 207.984375 151.523438 L 207.984375 166.402344 L 209.320312 167.023438 C 214.65625 169.769531 220.257812 172.601562 225.144531 176.058594 C 228.613281 178.535156 231.636719 181.285156 233.59375 185.09375 C 233.683594 185.179688 233.683594 185.269531 233.773438 185.359375 C 233.589844 166.9375 231.28125 163.394531 207.984375 151.523438 Z M 207.984375 151.523438 " fill-opacity="1" fill-rule="evenodd"/><path fill="#001369" d="M 207.984375 169.59375 L 207.984375 187.925781 C 223.632812 195.808594 229.769531 200.058594 232.171875 207.5 L 233.773438 207.5 C 233.859375 185.445312 232.882812 182.257812 207.984375 169.59375 Z M 207.984375 169.59375 " fill-opacity="1" fill-rule="evenodd"/><g clip-path="url(#23e2abf054)"><path fill="#001369" d="M 203.359375 104.230469 L 170.195312 87.316406 L 170.195312 117.957031 L 195.003906 130.625 L 195.003906 201.917969 L 203.359375 201.917969 Z M 203.359375 104.230469 " fill-opacity="1" fill-rule="evenodd"/></g><path fill="#001369" d="M 241.058594 180.929688 C 248.351562 187.039062 252.085938 193.242188 250.753906 198.734375 C 247.550781 211.753906 217.144531 215.558594 182.734375 207.234375 C 148.414062 198.820312 123.160156 181.550781 126.363281 168.441406 C 127.699219 162.953125 133.921875 159.144531 143.167969 157.105469 C 138.8125 158.964844 135.878906 161.53125 135.078125 164.898438 C 132.324219 176.058594 154.640625 191.113281 184.871094 198.554688 C 215.191406 205.90625 241.953125 202.71875 244.621094 191.558594 C 245.507812 188.28125 244.082031 184.648438 241.058594 180.929688 Z M 241.058594 180.929688 " fill-opacity="1" fill-rule="evenodd"/></svg>